<svg xmlns="http://www.w3.org/2000/svg" viewBox="0 0 64 64">
  <defs>
    <radialGradient id="bgGlow" cx="50%" cy="40%" r="65%">
      <stop offset="0%" stop-color="#b6d94f" />
      <stop offset="55%" stop-color="#5d7f1d" />
      <stop offset="100%" stop-color="#142603" />
    </radialGradient>
    <linearGradient id="leafMain" x1="0%" y1="0%" x2="100%" y2="100%">
      <stop offset="0%" stop-color="#c8ff52" />
      <stop offset="50%" stop-color="#6db61f" />
      <stop offset="100%" stop-color="#2f6f0b" />
    </linearGradient>
    <linearGradient id="leafShade" x1="0%" y1="0%" x2="100%" y2="100%">
      <stop offset="0%" stop-color="#568d12" />
      <stop offset="100%" stop-color="#214907" />
    </linearGradient>
    <filter id="shadow" x="-20%" y="-20%" width="140%" height="140%">
      <feDropShadow dx="0" dy="1.2" stdDeviation="1.2" flood-color="#0d1a03" flood-opacity="0.35" />
    </filter>
    <path id="leaf" d="M0 0C2.8-3.1 7.2-3.1 10 0C7.7 5.1 2.3 5.1 0 0Z" />
  </defs>

  <rect x="4" y="4" width="56" height="56" rx="18" fill="url(#bgGlow)" />

  <g filter="url(#shadow)">
    <rect x="20" y="13" width="6.5" height="38" rx="3.25" fill="#4f8a12" opacity="0.98" />
    <rect x="25" y="16" width="15" height="5.8" rx="2.9" fill="#4f8a12" opacity="0.96" />
    <rect x="25" y="28.9" width="13.6" height="5.6" rx="2.8" fill="#4f8a12" opacity="0.96" />
    <rect x="25" y="44.1" width="15.5" height="5.8" rx="2.9" fill="#4f8a12" opacity="0.96" />
    <rect x="38" y="18" width="6.4" height="13.2" rx="3.2" fill="#4f8a12" opacity="0.96" />
    <rect x="38.2" y="33.4" width="6.4" height="14.8" rx="3.2" fill="#4f8a12" opacity="0.96" />
  </g>

  <g>
    <g transform="translate(18.2 12.6)">
      <use href="#leaf" fill="url(#leafShade)" transform="rotate(-20 5 2.5) translate(0.9 1.1)" opacity="0.7" />
      <use href="#leaf" fill="url(#leafMain)" transform="rotate(-20 5 2.5)" />
    </g>
    <g transform="translate(18.4 18.3)">
      <use href="#leaf" fill="url(#leafShade)" transform="rotate(-20 5 2.5) translate(0.9 1.1)" opacity="0.7" />
      <use href="#leaf" fill="url(#leafMain)" transform="rotate(-20 5 2.5)" />
    </g>
    <g transform="translate(18.5 24)">
      <use href="#leaf" fill="url(#leafShade)" transform="rotate(-20 5 2.5) translate(0.9 1.1)" opacity="0.7" />
      <use href="#leaf" fill="url(#leafMain)" transform="rotate(-20 5 2.5)" />
    </g>
    <g transform="translate(18.7 29.7)">
      <use href="#leaf" fill="url(#leafShade)" transform="rotate(-20 5 2.5) translate(0.9 1.1)" opacity="0.7" />
      <use href="#leaf" fill="url(#leafMain)" transform="rotate(-20 5 2.5)" />
    </g>
    <g transform="translate(18.8 35.4)">
      <use href="#leaf" fill="url(#leafShade)" transform="rotate(-20 5 2.5) translate(0.9 1.1)" opacity="0.7" />
      <use href="#leaf" fill="url(#leafMain)" transform="rotate(-20 5 2.5)" />
    </g>
    <g transform="translate(19 41.1)">
      <use href="#leaf" fill="url(#leafShade)" transform="rotate(-20 5 2.5) translate(0.9 1.1)" opacity="0.7" />
      <use href="#leaf" fill="url(#leafMain)" transform="rotate(-20 5 2.5)" />
    </g>

    <g transform="translate(23.8 14.2)">
      <use href="#leaf" fill="url(#leafShade)" transform="rotate(35 5 2.5) translate(0.9 1.1)" opacity="0.7" />
      <use href="#leaf" fill="url(#leafMain)" transform="rotate(35 5 2.5)" />
    </g>
    <g transform="translate(29.1 14.4)">
      <use href="#leaf" fill="url(#leafShade)" transform="rotate(20 5 2.5) translate(0.9 1.1)" opacity="0.7" />
      <use href="#leaf" fill="url(#leafMain)" transform="rotate(20 5 2.5)" />
    </g>
    <g transform="translate(34.2 15)">
      <use href="#leaf" fill="url(#leafShade)" transform="rotate(10 5 2.5) translate(0.9 1.1)" opacity="0.7" />
      <use href="#leaf" fill="url(#leafMain)" transform="rotate(10 5 2.5)" />
    </g>

    <g transform="translate(36.9 18.2)">
      <use href="#leaf" fill="url(#leafShade)" transform="rotate(75 5 2.5) translate(0.9 1.1)" opacity="0.7" />
      <use href="#leaf" fill="url(#leafMain)" transform="rotate(75 5 2.5)" />
    </g>
    <g transform="translate(37.2 24.2)">
      <use href="#leaf" fill="url(#leafShade)" transform="rotate(90 5 2.5) translate(0.9 1.1)" opacity="0.7" />
      <use href="#leaf" fill="url(#leafMain)" transform="rotate(90 5 2.5)" />
    </g>

    <g transform="translate(23.5 27.8)">
      <use href="#leaf" fill="url(#leafShade)" transform="rotate(20 5 2.5) translate(0.9 1.1)" opacity="0.7" />
      <use href="#leaf" fill="url(#leafMain)" transform="rotate(20 5 2.5)" />
    </g>
    <g transform="translate(28.6 28.3)">
      <use href="#leaf" fill="url(#leafShade)" transform="rotate(10 5 2.5) translate(0.9 1.1)" opacity="0.7" />
      <use href="#leaf" fill="url(#leafMain)" transform="rotate(10 5 2.5)" />
    </g>
    <g transform="translate(33.2 28.8)">
      <use href="#leaf" fill="url(#leafShade)" transform="rotate(-5 5 2.5) translate(0.9 1.1)" opacity="0.7" />
      <use href="#leaf" fill="url(#leafMain)" transform="rotate(-5 5 2.5)" />
    </g>

    <g transform="translate(37.1 33.7)">
      <use href="#leaf" fill="url(#leafShade)" transform="rotate(65 5 2.5) translate(0.9 1.1)" opacity="0.7" />
      <use href="#leaf" fill="url(#leafMain)" transform="rotate(65 5 2.5)" />
    </g>
    <g transform="translate(37.2 39.2)">
      <use href="#leaf" fill="url(#leafShade)" transform="rotate(82 5 2.5) translate(0.9 1.1)" opacity="0.7" />
      <use href="#leaf" fill="url(#leafMain)" transform="rotate(82 5 2.5)" />
    </g>

    <g transform="translate(23.7 44.1)">
      <use href="#leaf" fill="url(#leafShade)" transform="rotate(25 5 2.5) translate(0.9 1.1)" opacity="0.7" />
      <use href="#leaf" fill="url(#leafMain)" transform="rotate(25 5 2.5)" />
    </g>
    <g transform="translate(29.3 44.6)">
      <use href="#leaf" fill="url(#leafShade)" transform="rotate(15 5 2.5) translate(0.9 1.1)" opacity="0.7" />
      <use href="#leaf" fill="url(#leafMain)" transform="rotate(15 5 2.5)" />
    </g>
    <g transform="translate(34.8 45.1)">
      <use href="#leaf" fill="url(#leafShade)" transform="rotate(5 5 2.5) translate(0.9 1.1)" opacity="0.7" />
      <use href="#leaf" fill="url(#leafMain)" transform="rotate(5 5 2.5)" />
    </g>
  </g>
</svg>
